<svg width="120" height="120" viewBox="0 0 120 120" xmlns="http://www.w3.org/2000/svg">
  <!-- Background circle -->
  <circle cx="60" cy="60" r="58" fill="#D4AF37" stroke="#8B0000" stroke-width="4"/>
  
  <!-- Stylized "P" with peacock inspiration -->
  <g transform="translate(60, 60)">
    <!-- Main "P" letter -->
    <path d="M -20 -30 L -20 30 L -15 30 L -15 0 L 5 0 C 15 0 20 -5 20 -15 C 20 -25 15 -30 5 -30 Z M -15 -25 L 5 -25 C 10 -25 15 -22 15 -15 C 15 -8 10 -5 5 -5 L -15 -5 Z" fill="#8B0000"/>
    
    <!-- Decorative peacock feather elements -->
    <circle cx="8" cy="-15" r="2" fill="#8B0000" opacity="0.7"/>
    <circle cx="12" cy="-18" r="1.5" fill="#8B0000" opacity="0.5"/>
    <circle cx="15" cy="-12" r="1" fill="#8B0000" opacity="0.8"/>
    
    <!-- Small decorative dots -->
    <circle cx="-8" cy="20" r="1" fill="#8B0000" opacity="0.6"/>
    <circle cx="-12" cy="25" r="0.8" fill="#8B0000" opacity="0.4"/>
  </g>
</svg>